<svg xmlns="http://www.w3.org/2000/svg" viewBox="0 0 120 120" width="512" height="512">
<circle cx="60" cy="60" r="52" fill="none" stroke="#1A1208" stroke-width="2"></circle>
<g stroke="#1A1208" stroke-width="1.5" stroke-linecap="round"><line x1="60.00" y1="12.00" x2="60.00" y2="18.00"></line><line x1="72.42" y1="13.64" x2="71.65" y2="16.53"></line><line x1="84.00" y1="18.43" x2="82.50" y2="21.03"></line><line x1="93.94" y1="26.06" x2="91.82" y2="28.18"></line><line x1="101.57" y1="36.00" x2="98.97" y2="37.50"></line><line x1="106.36" y1="47.58" x2="103.47" y2="48.35"></line><line x1="108.00" y1="60.00" x2="102.00" y2="60.00"></line><line x1="106.36" y1="72.42" x2="103.47" y2="71.65"></line><line x1="101.57" y1="84.00" x2="98.97" y2="82.50"></line><line x1="93.94" y1="93.94" x2="91.82" y2="91.82"></line><line x1="84.00" y1="101.57" x2="82.50" y2="98.97"></line><line x1="72.42" y1="106.36" x2="71.65" y2="103.47"></line><line x1="60.00" y1="108.00" x2="60.00" y2="102.00"></line><line x1="47.58" y1="106.36" x2="48.35" y2="103.47"></line><line x1="36.00" y1="101.57" x2="37.50" y2="98.97"></line><line x1="26.06" y1="93.94" x2="28.18" y2="91.82"></line><line x1="18.43" y1="84.00" x2="21.03" y2="82.50"></line><line x1="13.64" y1="72.42" x2="16.53" y2="71.65"></line><line x1="12.00" y1="60.00" x2="18.00" y2="60.00"></line><line x1="13.64" y1="47.58" x2="16.53" y2="48.35"></line><line x1="18.43" y1="36.00" x2="21.03" y2="37.50"></line><line x1="26.06" y1="26.06" x2="28.18" y2="28.18"></line><line x1="36.00" y1="18.43" x2="37.50" y2="21.03"></line><line x1="47.58" y1="13.64" x2="48.35" y2="16.53"></line></g>
<path d="M40 38 L40 84 M40 38 L60 38 A12 12 0 0 1 60 62 L40 62" fill="none" stroke="#1A1208" stroke-width="4" stroke-linecap="square" stroke-linejoin="miter"></path>
<circle cx="74" cy="78" r="3.5" fill="#C17D2B"></circle>
</svg>